<svg xmlns="http://www.w3.org/2000/svg" width="36.53" height="36.537" viewBox="0 0 36.53 36.537">
  <defs>
    <style>
      .cls-1 {
        opacity: 0.8;
      }

      .cls-2 {
        fill: #aeb4a6;
      }
    </style>
  </defs>
  <g id="Facebook" class="cls-1" transform="translate(0 0)">
    <path id="Subtraction_1" data-name="Subtraction 1" class="cls-2" d="M18.266,36.537c-4.927,0-5.576-.02-7.53-.107A13.489,13.489,0,0,1,6.3,35.582a9.042,9.042,0,0,1-3.234-2.106,8.956,8.956,0,0,1-2.112-3.24A13.4,13.4,0,0,1,.107,25.8C.02,23.828,0,23.175,0,18.273c0-4.938.022-5.587.114-7.537A13.5,13.5,0,0,1,.963,6.3,9.058,9.058,0,0,1,3.069,3.069,8.873,8.873,0,0,1,6.31.957a13.389,13.389,0,0,1,4.433-.85C12.717.02,13.37,0,18.272,0c4.938,0,5.587.022,7.538.114a13.465,13.465,0,0,1,4.432.85,9.033,9.033,0,0,1,3.234,2.105A8.889,8.889,0,0,1,35.588,6.31a13.4,13.4,0,0,1,.85,4.432c.085,1.935.093,2.568.093,7.53,0,4.9-.02,5.555-.107,7.53a13.474,13.474,0,0,1-.85,4.433,9.36,9.36,0,0,1-5.346,5.346,13.415,13.415,0,0,1-4.433.849C23.841,36.517,23.192,36.537,18.266,36.537ZM12,14.989v4.4h3.592V30.447H20V19.386h3.448l.547-4.4h-4V11.961c0-1.285.361-2.14,2.114-2.14h2.258V5.888a29.432,29.432,0,0,0-3.289-.174c-3.384,0-5.486,2.227-5.486,5.811v3.463Z" transform="translate(0 0)"/>
  </g>
</svg>
