<svg xmlns="http://www.w3.org/2000/svg" width="36.53" height="36.537" viewBox="0 0 36.53 36.537">
  <defs>
    <style>
      .cls-1 {
        fill: #fff;
      }
    </style>
  </defs>
  <g id="Instagram" transform="translate(0 0)">
    <path id="Subtraction_3" data-name="Subtraction 3" class="cls-1" d="M18.266,36.537c-4.921,0-5.571-.02-7.53-.107A13.491,13.491,0,0,1,6.3,35.582a9.042,9.042,0,0,1-3.234-2.106,8.955,8.955,0,0,1-2.112-3.24A13.4,13.4,0,0,1,.107,25.8C.02,23.822,0,23.168,0,18.273c0-4.943.022-5.591.114-7.537A13.479,13.479,0,0,1,.964,6.3,9.048,9.048,0,0,1,3.069,3.069,8.876,8.876,0,0,1,6.31.957a13.4,13.4,0,0,1,4.433-.85C12.723.02,13.376,0,18.273,0c4.943,0,5.59.022,7.537.114a13.485,13.485,0,0,1,4.432.85,9.032,9.032,0,0,1,3.234,2.105A8.891,8.891,0,0,1,35.588,6.31a13.4,13.4,0,0,1,.85,4.432c.085,1.942.093,2.575.093,7.53,0,4.9-.02,5.549-.107,7.53a13.491,13.491,0,0,1-.849,4.433,9.362,9.362,0,0,1-5.347,5.346,13.4,13.4,0,0,1-4.432.849C23.835,36.517,23.185,36.537,18.266,36.537Zm.006-27.651a9.386,9.386,0,1,0,9.386,9.386A9.4,9.4,0,0,0,18.272,8.887ZM28.03,6.324a2.191,2.191,0,1,0,2.192,2.192A2.194,2.194,0,0,0,28.03,6.324ZM18.272,24.361a6.089,6.089,0,1,1,6.088-6.089A6.095,6.095,0,0,1,18.272,24.361Z" transform="translate(0 0)"/>
  </g>
</svg>
