<svg xmlns="http://www.w3.org/2000/svg" width="33.944" height="33.944" viewBox="0 0 33.944 33.944">
  <g id="tree-leaf" transform="translate(33.944 16.975) rotate(135)">
    <g id="Group_4" data-name="Group 4" transform="translate(0 0)">
      <path id="Path_90" data-name="Path 90" class="cls-1" d="M23.548,23.558a1.534,1.534,0,0,1-1.153.448,40.644,40.644,0,0,1-4.153-.443,55.376,55.376,0,0,1-8.248-1.873,27.3,27.3,0,0,1-4-1.544,10.981,10.981,0,0,1-3.064-2.037l-.019-.02A10.815,10.815,0,0,1,.175,8.774,10.657,10.657,0,0,1,1.541,5.2c.235-.4.562-.859,16.459,12.808C4.272,2.165,4.666,1.881,5.171,1.565A10.468,10.468,0,0,1,9.36.085,10.754,10.754,0,0,1,10.711,0h0a10.78,10.78,0,0,1,5.03,1.244,9.355,9.355,0,0,1,2.535,1.878,13.263,13.263,0,0,1,2.15,3.494,40.714,40.714,0,0,1,2.478,8.16A44.635,44.635,0,0,1,24,22.4,1.533,1.533,0,0,1,23.548,23.558Z"/>
    </g>
  </g>
</svg>
