<svg xmlns="http://www.w3.org/2000/svg" width="36.538" height="36.537" viewBox="0 0 36.538 36.537">
  <defs>
    <style>
      .cls-1 {
        opacity: 0.8;
      }

      .cls-2 {
        fill: #aeb4a6;
      }
    </style>
  </defs>
  <g id="Youtube" class="cls-1" transform="translate(0 0)">
    <path id="Subtraction_4" data-name="Subtraction 4" class="cls-2" d="M18.285,36.537a66.3,66.3,0,0,1-12.05-1.025C3.4,34.966,1.167,32.08.68,28.329a74.738,74.738,0,0,1,0-20.123C1.167,4.456,3.4,1.569,6.235,1.023A66.188,66.188,0,0,1,18.27,0,66.144,66.144,0,0,1,30.3,1.023c2.836.546,5.069,3.431,5.556,7.181a74.76,74.76,0,0,1,0,20.127c-.49,3.751-2.722,6.637-5.554,7.183A65.91,65.91,0,0,1,18.285,36.537ZM13.485,9.87A1.487,1.487,0,0,0,12,11.354V25.182a1.483,1.483,0,0,0,2.24,1.274l11.595-6.9a1.484,1.484,0,0,0,0-2.546l-11.6-6.925A1.468,1.468,0,0,0,13.485,9.87Zm1.476,12.706V13.964l7.221,4.312-7.219,4.3Z" transform="translate(0 0)"/>
  </g>
</svg>
