<svg xmlns="http://www.w3.org/2000/svg" width="299.893" height="36.339" viewBox="0 0 299.893 36.339"><g transform="translate(0 -4.242)"><path d="M36.288,33.66c-.108-1.8-.348-3.343-.358-3.408l-.285-1.817-1.716.662c-.061.024-1.518.588-3.13,1.394-3.166,1.584-4.039,2.646-4.421,3.307a5.351,5.351,0,0,0,.578,6.161,12.563,12.563,0,0,1-7.228,3.565l-.074.01V32.221a12.456,12.456,0,0,0,7.021-4.757A5.77,5.77,0,0,0,33.251,24.8c.864-1.5.816-4.142.7-6-.119-1.992-.385-3.7-.4-3.773L33.275,13.2l-1.716.662c-.068.026-1.681.651-3.466,1.544-1.667.834-3.983,2.115-4.846,3.611a5.785,5.785,0,0,0,.865,6.917,9.491,9.491,0,0,1-4.457,3.192V17.119a6.313,6.313,0,0,0,4.818-6.124c0-.522,0-2.109-2.655-6.131C20.588,3,19.376,1.495,19.325,1.431L18.17,0,17.014,1.431c-.051.063-1.263,1.569-2.493,3.432-2.655,4.022-2.655,5.609-2.655,6.131a6.312,6.312,0,0,0,4.818,6.124V29.127a9.491,9.491,0,0,1-4.457-3.192,5.785,5.785,0,0,0,.865-6.917c-.864-1.5-3.179-2.777-4.846-3.611-1.785-.893-3.4-1.518-3.466-1.544L3.065,13.2,2.78,15.019c-.011.072-.277,1.781-.4,3.773-.111,1.86-.159,4.507.7,6a5.8,5.8,0,0,0,5.006,2.889h0a5.749,5.749,0,0,0,1.57-.22,12.456,12.456,0,0,0,7.021,4.757V43.534l-.074-.01a12.563,12.563,0,0,1-7.228-3.565A5.351,5.351,0,0,0,9.961,33.8c-.382-.661-1.255-1.723-4.421-3.307-1.612-.806-3.069-1.37-3.13-1.394L.694,28.435.409,30.253c-.01.065-.25,1.609-.358,3.408C-.16,37.194.323,38.481.7,39.142a5.363,5.363,0,0,0,4.632,2.673h0a5.325,5.325,0,0,0,1.5-.218,15.518,15.518,0,0,0,9.377,4.869l.469.063V62.977h2.969V46.529l.469-.063A15.518,15.518,0,0,0,29.5,41.6a5.339,5.339,0,0,0,6.135-2.455c.382-.661.865-1.948.653-5.482Z" transform="translate(0 40.582) rotate(-90)" fill="#94de1d"/><text transform="translate(66.893 31)" fill="#1c1c1c" font-size="26" font-family="Montserrat-ExtraBold, Montserrat" font-weight="800" letter-spacing="0.4em"><tspan x="0" y="0">GROW</tspan><tspan y="0" fill="#686d63" font-family="Montserrat-Light, Montserrat" font-weight="300">TREE</tspan></text><g transform="translate(82.328 20.952)"><rect width="12.472" height="2.993" rx="1.497" fill="#94de1d"/><rect width="12.472" height="2.993" rx="1.497" transform="translate(33.424)" fill="#94de1d"/><rect width="12.472" height="2.993" rx="1.497" transform="translate(73.333)" fill="#94de1d"/></g></g></svg>