<svg xmlns="http://www.w3.org/2000/svg" width="200.912" height="28.192" viewBox="0 0 200.912 28.192">
  <defs>
    <style>
      .cls-1 {
        fill: #94de1d;
      }

      .cls-2 {
        fill: #fff;
        font-size: 18px;
        font-family: Montserrat-ExtraBold, Montserrat;
        font-weight: 800;
        letter-spacing: 0.3em;
      }

      .cls-3 {
        fill: #aeb4a6;
        font-family: Montserrat-Light, Montserrat;
        font-weight: 300;
      }
    </style>
  </defs>
  <g id="logo" transform="translate(0 -3.291)">
    <path id="leaf" class="cls-1" d="M28.152,26.113c-.083-1.4-.27-2.593-.277-2.644l-.221-1.41-1.331.514c-.048.018-1.178.456-2.428,1.081-2.456,1.229-3.134,2.052-3.43,2.565A4.151,4.151,0,0,0,20.912,31,9.746,9.746,0,0,1,15.3,33.765l-.057.008V25a9.663,9.663,0,0,0,5.447-3.691,4.476,4.476,0,0,0,5.1-2.071c.67-1.16.633-3.213.546-4.657-.092-1.546-.3-2.872-.307-2.927l-.221-1.41-1.331.514c-.053.02-1.3.5-2.689,1.2-1.293.647-3.09,1.641-3.76,2.8a4.488,4.488,0,0,0,.671,5.366A7.363,7.363,0,0,1,15.247,22.6V13.281a4.9,4.9,0,0,0,3.738-4.751c0-.4,0-1.636-2.059-4.756-.954-1.445-1.894-2.614-1.934-2.663L14.1,0l-.9,1.11c-.04.049-.98,1.217-1.934,2.663C9.206,6.894,9.206,8.125,9.206,8.529a4.9,4.9,0,0,0,3.738,4.751V22.6a7.363,7.363,0,0,1-3.458-2.476,4.488,4.488,0,0,0,.671-5.366c-.67-1.161-2.467-2.155-3.76-2.8-1.385-.693-2.636-1.177-2.689-1.2l-1.331-.514-.221,1.41c-.009.056-.215,1.382-.307,2.927-.086,1.443-.124,3.5.546,4.657a4.5,4.5,0,0,0,3.884,2.241h0A4.46,4.46,0,0,0,7.5,21.306,9.663,9.663,0,0,0,12.944,25v8.776l-.057-.008A9.746,9.746,0,0,1,7.279,31a4.151,4.151,0,0,0,.448-4.78c-.3-.513-.974-1.337-3.43-2.565-1.25-.625-2.381-1.063-2.428-1.081L.538,22.06l-.221,1.41C.31,23.52.123,24.718.04,26.113c-.164,2.741.211,3.74.507,4.253A4.16,4.16,0,0,0,4.14,32.439h0a4.131,4.131,0,0,0,1.166-.169,12.039,12.039,0,0,0,7.275,3.778l.364.049v12.76h2.3V36.1l.364-.049a12.039,12.039,0,0,0,7.275-3.778,4.142,4.142,0,0,0,4.759-1.9c.3-.513.671-1.512.507-4.253Z" transform="translate(0 31.483) rotate(-90)"/>
    <text id="GROWtree" class="cls-2" transform="translate(51.912 23)"><tspan x="0" y="0">GROW</tspan><tspan class="cls-3" y="0">TREE</tspan></text>
    <g id="Group_3" data-name="Group 3" transform="translate(57.809 16.254)">
      <rect id="Rectangle_2" data-name="Rectangle 2" class="cls-1" width="9.675" height="2.322" rx="1.161"/>
      <rect id="Rectangle_3" data-name="Rectangle 3" class="cls-1" width="9.675" height="2.322" rx="1.161" transform="translate(23.221)"/>
      <rect id="Rectangle_4" data-name="Rectangle 4" class="cls-1" width="9.675" height="2.322" rx="1.161" transform="translate(51.859)"/>
    </g>
  </g>
</svg>
